<svg width="125" height="79" xmlns="http://www.w3.org/2000/svg" xmlns:xlink="http://www.w3.org/1999/xlink"><defs><path id="a" d="M.917.432h113.486v70.607H.917z"/><path id="c" d="M0 .518h113.804v69.54H0z"/><path id="e" d="M.723.517h29.88V30H.723z"/></defs><g fill="none" fill-rule="evenodd"><g transform="translate(0 -.432)"><mask id="b" fill="#fff"><use xlink:href="#a"/></mask><path d="M112.157 69.776c-37.815 1.746-74.44 1.87-108.994-.83-.83-.007-1.498-.739-1.49-1.636C3.015 41.116 1.455 26.718.916 2.704c.007-.897.685-1.618 1.515-1.613 33.24-1.263 71.4-.583 110.242.946.83.006 1.497.738 1.49 1.635.903 34.926-1.095 38.771-.49 64.491-.008.897-.687 1.62-1.517 1.613" fill="#F8FAFB" mask="url(#b)"/></g><path d="M51.577 59.549c-10.873-5.588-21.22-12.88-29.807-21.615C13.315 29.33 7.707 18.654 2.288 8.003c.454 20.77.62 34.79-.616 58.876-.007.897.661 1.629 1.491 1.636 25.39 1.984 51.9 2.439 79.177 1.85-10.583-2.231-20.907-5.751-30.763-10.816" fill="#E1EAEE"/><path d="M1.28 3.898C19.847 15.204 39.468 24.641 58.37 35.36c1.961 1.112 3.727-1.91 1.765-3.023C41.235 21.62 21.615 12.181 3.047.876 1.117-.298-.643 2.727 1.28 3.898" fill="#CCDAE1"/><path d="M60.136 35.36c18.104-9.46 35.87-19.898 53.333-30.49 1.924-1.167.167-4.196-1.767-3.023-17.462 10.592-35.23 21.031-53.333 30.49-1.997 1.043-.23 4.065 1.767 3.022m-23.548-5.887L2.617 64.992c-1.556 1.628.914 4.107 2.475 2.475l33.972-35.52c1.556-1.628-.915-4.107-2.476-2.475" fill="#CCDAE1"/><path d="M70.371 29.51c12.795 14.01 26.691 27.273 40.507 40.269 1.64 1.543 4.12-.928 2.474-2.475-13.814-12.996-27.71-26.26-40.505-40.27-1.523-1.667-3.993.815-2.476 2.476" fill="#CCDAE1"/><g transform="translate(0 .568)"><mask id="d" fill="#fff"><use xlink:href="#c"/></mask><path d="M.211 2.207C-.467 22.808.753 43.413.205 64.018c-.189 7.117 5.41 5.762 10.731 5.817 22.627.23 45.257.255 67.884.197 11.098-.028 22.201-.039 33.295-.309 2.248-.055 2.257-3.555 0-3.5-20.745.506-41.515.353-62.264.31a5962.525 5962.525 0 01-31.648-.138c-3.455-.024-6.911-.05-10.367-.095-.571-.008-4.194.39-4.611-.098-.029-.033.582-4.543.596-5.005.091-2.834.124-5.67.138-8.507.025-5.407-.055-10.813-.152-16.219-.204-11.422-.472-22.842-.096-34.264.074-2.253-3.426-2.25-3.5 0" fill="#CCDAE1" mask="url(#d)"/></g><g transform="translate(94 48.568)"><mask id="f" fill="#fff"><use xlink:href="#e"/></mask><path d="M27.675 7.424C24.81 3.354 20.158.482 15.16.517 5.668.584-1.74 11.65 1.493 20.447c2.018 5.49 7.6 9.024 13.3 9.497 1.955.162 3.943-.022 5.82-.598.268-.082.534-.172.796-.27 4.549-1.69 8.014-5.544 8.954-10.345.774-3.951-.375-8.02-2.688-11.307" fill="#FB5252" mask="url(#f)"/></g><path d="M106.797 62.119c1.707-1.19 3.533-2.305 5.06-3.729 1.65-1.54-.829-4.011-2.475-2.475-1.309 1.221-2.888 2.161-4.352 3.182-.774.54-1.131 1.532-.628 2.394.449.767 1.616 1.171 2.395.628" fill="#FFF"/><path d="M108.87 57.152c-.102 4.886-.02 9.771.047 14.656.03 2.25 3.53 2.257 3.5 0-.067-4.885-.149-9.77-.048-14.656.047-2.253-3.453-2.253-3.5 0" fill="#FFF"/></g></svg>